<svg id="Layer" xmlns="http://www.w3.org/2000/svg" xmlns:xlink="http://www.w3.org/1999/xlink" viewBox="0 0 309.94 211.32"><defs><style>.cls-1{fill:none;}.cls-2,.cls-23{fill:#fff;}.cls-3,.cls-30,.cls-4,.cls-6{fill:#4979bc;}.cls-23,.cls-24,.cls-3{fill-rule:evenodd;}.cls-3,.cls-30{opacity:0.14;}.cls-29,.cls-4{opacity:0.4;}.cls-24,.cls-5{fill:#e6e3e5;}.cls-7{fill:#ef774e;}.cls-8{fill:#f7b29b;}.cls-9{fill:#6656a0;}.cls-10,.cls-27{fill:#999ea3;}.cls-11,.cls-26{fill:#cbcdd8;}.cls-12{fill:#f1f2f2;}.cls-13{fill:#023042;}.cls-14{fill:#cfdbe4;}.cls-15{fill:#2362ac;}.cls-16{fill:#d2ced5;}.cls-17{fill:#ea4e6e;}.cls-18{fill:#8ac691;}.cls-19{fill:#e5e5e4;}.cls-20{fill:#fcdcd3;}.cls-21{opacity:0.1;}.cls-22{fill:#343434;}.cls-25{fill:url(#Új_mintázatos_színtár_1);}.cls-26,.cls-27{opacity:0.5;}.cls-28{fill:#78a5d8;}</style><pattern id="Új_mintázatos_színtár_1" data-name="Új mintázatos színtár 1" width="38.25" height="55" patternUnits="userSpaceOnUse" viewBox="0 0 38.24 55"><rect class="cls-1" width="38.25" height="55"/><rect class="cls-2" width="38.25" height="55"/></pattern></defs><title>eezy_10</title><path class="cls-3" d="M302.33,29.91H177.62V159.17H307.26V29.91ZM182.55,36.42H240v1H182.55ZM240,41.52v1.16H182.55V41.52Zm-57.42,10.6H240v1.16H182.55Zm0-4.14V46.82H240V48Zm0,9.44H240v1.16H182.55Zm0,96.76h0V62.71H240v91.47Zm119.78,0H245.48V62.71h56.85Zm0-95.6H245.48V57.42h56.85Zm0-5.3H245.48V52.12h56.85Zm0-5.3H245.48V46.82h56.85Zm0-5.3H245.48V41.52h56.85Zm0-5.3H245.48v-1h56.85Z" transform="translate(-12.74 -12.33)"/><path class="cls-3" d="M154.64,29.91H29.92V159.17H159.57V29.91ZM34.85,36.42H92.27v1H34.85Zm57.42,5.1v1.16H34.85V41.52ZM34.85,52.12H92.27v1.16H34.85Zm0-4.14V46.82H92.27V48Zm0,9.44H92.27v1.16H34.85Zm0,96.76h0V62.71H92.27v91.47Zm119.79,0H97.79V62.71h56.85Zm0-95.6H97.79V57.42h56.85Zm0-5.3H97.79V52.12h56.85Zm0-5.3H97.79V46.82h56.85Zm0-5.3H97.79V41.52h56.85Zm0-5.3H97.79v-1h56.85Z" transform="translate(-12.74 -12.33)"/><rect class="cls-4" width="309.94" height="194.75" rx="13.07" ry="13.07"/><polygon class="cls-5" points="176.81 142.4 189.74 210.34 194.46 210.34 180.9 142.4 176.81 142.4"/><polygon class="cls-5" points="130.76 142.4 117.19 210.34 121.92 210.34 134.84 142.4 130.76 142.4"/><path class="cls-6" d="M209,134.53c-6.68-24-17.59-55-17.59-55h0v0a11.6,11.6,0,0,0-11.19-9.15H156.6a11.59,11.59,0,0,0-11.2,9.18s-10.92,31.07-17.59,55,11.13,25,11.13,25h58.9S215.64,158.49,209,134.53Z" transform="translate(-12.74 -12.33)"/><rect class="cls-7" x="27.42" y="105.25" width="253.48" height="8.87"/><polygon class="cls-8" points="45.8 210.26 41.17 210.26 55.84 114.13 65.51 114.13 45.8 210.26"/><polygon class="cls-8" points="264.57 210.26 269.2 210.26 253.97 114.13 244.3 114.13 264.57 210.26"/><path class="cls-9" d="M145.42,203.11v6.4s-1,3.42,3.56,2.35a29.33,29.33,0,0,0,8-3.2v-5.55Z" transform="translate(-12.74 -12.33)"/><path class="cls-9" d="M101.59,180.77l-4.2,4.84s-3,1.94,1.15,4.11a29.9,29.9,0,0,0,8.54,2.8l3.89-5Z" transform="translate(-12.74 -12.33)"/><rect class="cls-10" x="197.97" y="157.83" width="48.91" height="4.91"/><path class="cls-5" d="M214,175.06v41.45a6,6,0,0,0,6,6h30.26a6,6,0,0,0,6-6V175.06Z" transform="translate(-12.74 -12.33)"/><path class="cls-11" d="M255.7,213.73l.64-.66v-1.38L255,213l-3.34-3.46,3.34-3.45,1.3,1.35V206.1l-.64-.66.64-.65v-1.38l-1.3,1.34-3.34-3.45,3.34-3.45,1.3,1.35v-1.38l-.64-.66.64-.66v-1.38l-1.3,1.35L251.7,193l3.34-3.45,1.3,1.34v-1.37l-.63-.66.63-.66v-1.38l-1.3,1.35-3.34-3.45,3.34-3.46,1.3,1.35v-1.38l-.63-.66.63-.65v-1.38l-1.3,1.35-3.34-3.46,1.34-1.39h-1.33l-.68.71-.68-.71H249l1.34,1.39L247,179.91l-3.34-3.46,1.35-1.39H243.7l-.68.71-.69-.71H241l1.35,1.39L239,179.91l-3.34-3.46,1.34-1.39h-1.33l-.68.71-.68-.71H233l1.34,1.39L231,179.91l-3.34-3.46,1.35-1.39h-1.33l-.69.71-.68-.71H225l1.35,1.39L223,179.91l-3.34-3.46,1.34-1.39h-1.33l-.68.71-.68-.71H217l1.34,1.39L215,179.91l-1-1v1.38l.29.29-.29.3v1.38l1-1,3.34,3.46L215,188.19l-1-1v1.38l.29.3-.29.3v1.37l1-1L218.3,193,215,196.47l-1-1v1.38l.29.3-.29.3v1.38l1-1,3.34,3.45L215,204.75l-1-1v1.37l.29.3-.29.3v1.38l1-1,3.34,3.45L215,213l-1-1v1.38l.29.3-.29.3v1.37l1-1,3.34,3.46-2.66,2.75a7.2,7.2,0,0,0,.71.64l2.62-2.7,3.34,3.45-.52.54h2.38l-.53-.54,3.34-3.45,3.35,3.45-.53.54h2.38l-.52-.54,3.34-3.45,3.34,3.45-.52.54h2.38l-.53-.54,3.35-3.45,3.34,3.45-.53.54h2.38l-.52-.54,3.34-3.45,2.77,2.86a7.27,7.27,0,0,0,.74-.61l-2.84-2.94,3.34-3.46,1.3,1.35v-1.38Zm-1.33-8.29L251,208.9l-3.34-3.46L251,202ZM231,197.85l3.34,3.45L231,204.75l-3.34-3.45Zm-4,2.76-3.34-3.45,3.34-3.45,3.35,3.45Zm4.68-3.45,3.34-3.45,3.34,3.45L235,200.61Zm7.35.69,3.34,3.45L239,204.75l-3.34-3.45Zm.66-.69,3.35-3.45,3.34,3.45L243,200.61Zm7.35.69,3.34,3.45L247,204.75l-3.34-3.45ZM243.68,193l3.34-3.45,3.34,3.45L247,196.47Zm-.66-.69-3.35-3.45,3.35-3.45,3.34,3.45Zm-.67.69L239,196.47,235.67,193l3.34-3.45Zm-7.35-.69-3.34-3.45,3.34-3.46,3.34,3.46Zm-.67.69L231,196.47,227.65,193l3.34-3.45Zm-7.35-.69-3.34-3.45,3.34-3.45,3.35,3.45Zm-.66.69L223,196.47,219.64,193l3.34-3.45Zm0,8.28L223,204.75l-3.34-3.45,3.34-3.45Zm0,8.28L223,213l-3.34-3.46,3.34-3.45Zm-2.68-4.14L227,202l3.35,3.45L227,208.9Zm7.35.69,3.34,3.45L231,213l-3.34-3.46Zm.67-.69L235,202l3.34,3.45L235,208.9Zm7.35.69,3.34,3.45L239,213l-3.34-3.46Zm.66-.69L243,202l3.34,3.45L243,208.9Zm7.35.69,3.34,3.45L247,213l-3.34-3.46Zm7.35-9L251,200.61l-3.34-3.45,3.34-3.45Zm0-8.28L251,192.33l-3.34-3.45,3.34-3.45ZM251,177.14l3.34,3.45L251,184.05l-3.34-3.45Zm-.67,7.6L247,188.19l-3.34-3.45,3.34-3.46Zm-7.34-7.6,3.34,3.46L243,184.05l-3.35-3.45Zm-.67,7.6L239,188.19l-3.34-3.45,3.34-3.46Zm-7.35-7.6,3.34,3.46L235,184.05l-3.34-3.45Zm-.67,7.6L231,188.19l-3.34-3.45,3.34-3.46Zm-7.35-7.6,3.35,3.46L227,184.05l-3.34-3.45Zm-.66,7.6L223,188.19l-3.34-3.45,3.34-3.46Zm-10.69-4.15,3.34-3.45,3.34,3.46L219,184.05Zm0,8.29,3.34-3.45,3.34,3.45L219,192.33Zm0,8.28,3.34-3.45,3.34,3.45L219,200.61Zm0,8.28L219,202l3.34,3.45L219,208.9Zm0,8.29,3.34-3.46,3.34,3.46L219,217.18Zm7.35,7.59-3.34-3.45,3.34-3.46,3.34,3.46Zm.66-7.59,3.34-3.46,3.35,3.46L227,217.18Zm7.35,7.59-3.34-3.45,3.34-3.46,3.34,3.46Zm.67-7.59,3.34-3.46,3.34,3.46L235,217.18Zm7.35,7.59-3.34-3.45,3.34-3.46,3.34,3.46Zm.66-7.59,3.35-3.46,3.34,3.46L243,217.18Zm7.35,7.59-3.34-3.45,3.34-3.46,3.34,3.46Zm4-4.14-3.34-3.45,3.34-3.46,3.34,3.46Z" transform="translate(-12.74 -12.33)"/><path class="cls-12" d="M214.13,101.06H124.07a4.09,4.09,0,0,1-4.2-4V40.55a4.09,4.09,0,0,1,4.2-4h90.06a4.07,4.07,0,0,1,4.17,4V97a4.07,4.07,0,0,1-4.17,4" transform="translate(-12.74 -12.33)"/><path class="cls-5" d="M159.46,89.36v28.22h21.18V89.36a3.85,3.85,0,0,0-3.85-3.85H163.31A3.85,3.85,0,0,0,159.46,89.36Zm11,10a4.21,4.21,0,1,1,3.5-3.49A4.21,4.21,0,0,1,170.43,99.4Z" transform="translate(-12.74 -12.33)"/><path class="cls-5" d="M170.05,60.37a4.06,4.06,0,0,1,.24,1.31A4.08,4.08,0,0,1,163.75,65a6,6,0,1,0,6.3-4.59Z" transform="translate(-12.74 -12.33)"/><g id="phone"><g id="phone-2" data-name="phone"><rect class="cls-13" x="133.76" y="75.69" width="16.57" height="29.56" rx="2.12" ry="2.12"/><rect class="cls-11" x="140.21" y="102.34" width="3.68" height="1.23" rx="0.51" ry="0.51"/><path class="cls-11" d="M155.26,89.49a.47.47,0,0,1-.47.48.48.48,0,0,1-.48-.48.49.49,0,0,1,.48-.48A.47.47,0,0,1,155.26,89.49Z" transform="translate(-12.74 -12.33)"/><rect class="cls-2" x="134.96" y="78.8" width="14.17" height="21.85"/></g><rect class="cls-14" x="136.26" y="81.26" width="11.57" height="0.65"/><rect class="cls-14" x="136.26" y="82.59" width="11.57" height="0.65"/><rect class="cls-14" x="136.26" y="83.92" width="11.57" height="0.65"/><rect class="cls-14" x="136.26" y="85.26" width="11.57" height="0.65"/><rect class="cls-14" x="136.26" y="86.59" width="11.57" height="0.65"/><rect class="cls-8" x="136.67" y="90.29" width="11.16" height="3.33"/><rect class="cls-7" x="136.67" y="94.98" width="11.16" height="3.33"/></g><path class="cls-2" d="M190,102.53c0,2.56,1.82,4.09,4.39,4.09h78.09c2.57,0,4-1.53,4-4.09V96H190Z" transform="translate(-12.74 -12.33)"/><path class="cls-13" d="M241.18,106.62H224.6c-.2,6.06-1.19,9.71-6,10.87h28.51C242.37,116.33,241.38,112.68,241.18,106.62Z" transform="translate(-12.74 -12.33)"/><path class="cls-13" d="M273.82,41.34H193.13c-2.56,0-3.09.73-3.09,3.29V96h86.45V44.63C276.49,42.07,276.39,41.34,273.82,41.34Z" transform="translate(-12.74 -12.33)"/><rect class="cls-15" x="180.83" y="31.95" width="79.39" height="48.22"/><path class="cls-11" d="M236.06,100.86a2.59,2.59,0,1,1-2.58-2.58A2.59,2.59,0,0,1,236.06,100.86Z" transform="translate(-12.74 -12.33)"/><rect class="cls-2" x="180.83" y="31.83" width="79.39" height="3.89"/><polygon class="cls-16" points="203.18 32.92 201.42 32.92 192.94 32.92 192.94 34.63 201.42 34.63 203.18 34.63 214.77 34.63 214.77 32.92 203.18 32.92"/><rect class="cls-16" x="216.14" y="32.92" width="42.45" height="1.71"/><circle class="cls-17" cx="183.87" cy="33.88" r="0.96"/><circle class="cls-8" cx="186.72" cy="33.88" r="0.96"/><circle class="cls-18" cx="189.56" cy="33.88" r="0.96"/><path class="cls-17" d="M206.14,80.84v-24A2.79,2.79,0,0,1,208.93,54h48.48a2.78,2.78,0,0,1,2.78,2.79v24Z" transform="translate(-12.74 -12.33)"/><rect class="cls-2" x="193.4" y="68.62" width="54.03" height="5.92"/><path class="cls-2" d="M231,65.5a.55.55,0,0,0,0,.09V71.2s0,.07,0,.09l.09,0,4.86-2.81.07,0-.07,0-4.86-2.81-.09,0Z" transform="translate(-12.74 -12.33)"/><path class="cls-11" d="M254.37,83.55h-29.5v.71h29.5a.35.35,0,0,0,.36-.35A.36.36,0,0,0,254.37,83.55Z" transform="translate(-12.74 -12.33)"/><path class="cls-8" d="M225.22,83.91a.35.35,0,0,1-.35.35H212.14a.35.35,0,0,1-.36-.35h0a.36.36,0,0,1,.36-.36h12.73a.36.36,0,0,1,.35.36Z" transform="translate(-12.74 -12.33)"/><path class="cls-17" d="M225.87,83.91a1,1,0,0,1-2,0,1,1,0,1,1,2,0Z" transform="translate(-12.74 -12.33)"/><polygon class="cls-11" points="195.24 70.47 197.17 71.58 195.24 72.69 195.24 70.47"/><polygon class="cls-11" points="244.93 70.92 244.02 70.92 244.02 72.23 244.93 72.23 245.95 73.01 245.95 70.15 244.93 70.92"/><path class="cls-2" d="M287,53.82l-21.55,0a.52.52,0,0,0-.52.52V69.21l7.17,7.17H287a.53.53,0,0,0,.52-.51V54.33a.51.51,0,0,0-.51-.51Z" transform="translate(-12.74 -12.33)"/><path class="cls-16" d="M271.58,69.22h-6.66l7.16,7.17h0V69.73a.51.51,0,0,0-.52-.51Z" transform="translate(-12.74 -12.33)"/><g id="keyboard"><path class="cls-10" d="M293.49,117.58V92.1A1.55,1.55,0,0,0,292,90.55H232a1.55,1.55,0,0,0-1.54,1.55v25.48Z" transform="translate(-12.74 -12.33)"/><rect class="cls-2" x="219.53" y="95.32" width="7.45" height="3.01"/><rect class="cls-2" x="219.53" y="99.27" width="3.01" height="3.02"/><rect class="cls-2" x="223.22" y="99.27" width="3.02" height="3.02"/><rect class="cls-2" x="226.9" y="99.27" width="3.02" height="3.02"/><rect class="cls-2" x="230.59" y="99.27" width="3.02" height="3.02"/><rect class="cls-2" x="256.97" y="99.27" width="3.02" height="3.02"/><rect class="cls-2" x="260.61" y="99.27" width="3.02" height="3.02"/><rect class="cls-2" x="264.26" y="99.27" width="3.02" height="3.02"/><rect class="cls-2" x="267.9" y="99.27" width="3.02" height="3.02"/><rect class="cls-2" x="271.67" y="99.27" width="3.02" height="3.02"/><rect class="cls-2" x="275.44" y="99.27" width="3.65" height="3.02"/><rect class="cls-2" x="234.27" y="99.27" width="22.07" height="3.02"/><rect class="cls-2" x="219.53" y="81.1" width="3.01" height="1.97"/><rect class="cls-2" x="223.24" y="81.1" width="3.01" height="1.97"/><rect class="cls-2" x="226.94" y="81.1" width="3.01" height="1.97"/><rect class="cls-2" x="230.65" y="81.1" width="3.01" height="1.97"/><rect class="cls-2" x="234.73" y="81.1" width="3.01" height="1.97"/><rect class="cls-2" x="238.44" y="81.1" width="3.01" height="1.97"/><rect class="cls-2" x="242.15" y="81.1" width="3.02" height="1.97"/><rect class="cls-2" x="245.85" y="81.1" width="3.02" height="1.97"/><rect class="cls-2" x="249.81" y="81.1" width="3.02" height="1.97"/><rect class="cls-2" x="253.52" y="81.1" width="3.02" height="1.97"/><rect class="cls-2" x="257.22" y="81.1" width="3.02" height="1.97"/><rect class="cls-2" x="260.93" y="81.1" width="3.02" height="1.97"/><rect class="cls-2" x="264.92" y="81.15" width="3.02" height="1.97"/><rect class="cls-2" x="268.62" y="81.15" width="3.02" height="1.97"/><rect class="cls-2" x="272.33" y="81.15" width="3.02" height="1.97"/><rect class="cls-2" x="276.04" y="81.15" width="3.02" height="1.97"/><rect class="cls-2" x="219.53" y="91.36" width="5.78" height="3.01"/><rect class="cls-2" x="226.05" y="91.36" width="3.02" height="3.01"/><rect class="cls-2" x="227.81" y="95.32" width="3.02" height="3.01"/><rect class="cls-2" x="231.46" y="95.32" width="3.01" height="3.01"/><rect class="cls-2" x="235.1" y="95.32" width="3.02" height="3.01"/><rect class="cls-2" x="238.74" y="95.32" width="3.02" height="3.01"/><rect class="cls-2" x="242.39" y="95.32" width="3.02" height="3.01"/><rect class="cls-2" x="246.03" y="95.32" width="3.01" height="3.01"/><rect class="cls-2" x="249.67" y="95.32" width="3.01" height="3.01"/><rect class="cls-2" x="253.32" y="95.32" width="3.02" height="3.01"/><rect class="cls-2" x="256.96" y="95.32" width="3.02" height="3.01"/><rect class="cls-2" x="260.6" y="95.32" width="3.02" height="3.01"/><rect class="cls-2" x="264.25" y="95.32" width="3.01" height="3.01"/><rect class="cls-2" x="267.89" y="95.32" width="11.18" height="3.01"/><rect class="cls-2" x="229.7" y="91.36" width="3.02" height="3.01"/><rect class="cls-2" x="233.34" y="91.36" width="3.01" height="3.01"/><rect class="cls-2" x="236.98" y="91.36" width="3.02" height="3.01"/><rect class="cls-2" x="240.63" y="91.36" width="3.01" height="3.01"/><rect class="cls-2" x="244.27" y="91.36" width="3.02" height="3.01"/><rect class="cls-2" x="247.92" y="91.36" width="3.01" height="3.01"/><rect class="cls-2" x="251.56" y="91.36" width="3.02" height="3.01"/><rect class="cls-2" x="255.2" y="91.36" width="3.01" height="3.01"/><rect class="cls-2" x="258.85" y="91.36" width="3.01" height="3.01"/><rect class="cls-2" x="262.49" y="91.36" width="3.02" height="3.01"/><rect class="cls-2" x="266.13" y="91.36" width="3.02" height="3.01"/><rect class="cls-2" x="269.78" y="91.36" width="9.3" height="3.01"/><rect class="cls-2" x="219.53" y="87.4" width="4.86" height="3.01"/><rect class="cls-2" x="225.14" y="87.4" width="3.02" height="3.01"/><rect class="cls-2" x="228.91" y="87.4" width="3.02" height="3.01"/><rect class="cls-2" x="232.68" y="87.4" width="3.02" height="3.01"/><rect class="cls-2" x="236.45" y="87.4" width="3.02" height="3.01"/><rect class="cls-2" x="240.22" y="87.4" width="3.02" height="3.01"/><rect class="cls-2" x="243.99" y="87.4" width="3.02" height="3.01"/><rect class="cls-2" x="247.76" y="87.4" width="3.02" height="3.01"/><rect class="cls-2" x="251.53" y="87.4" width="3.01" height="3.01"/><rect class="cls-2" x="255.29" y="87.4" width="3.01" height="3.01"/><rect class="cls-2" x="259.06" y="87.4" width="3.02" height="3.01"/><rect class="cls-2" x="262.83" y="87.4" width="3.01" height="3.01"/><rect class="cls-2" x="266.6" y="87.4" width="3.02" height="3.01"/><rect class="cls-2" x="270.37" y="87.4" width="3.01" height="3.01"/><rect class="cls-2" x="274.14" y="87.4" width="4.94" height="3.01"/><rect class="cls-2" x="268.53" y="83.73" width="6.7" height="3.01"/><rect class="cls-2" x="219.53" y="83.73" width="3.01" height="3.01"/><rect class="cls-2" x="223.3" y="83.73" width="3.02" height="3.01"/><rect class="cls-2" x="227.07" y="83.73" width="3.02" height="3.01"/><rect class="cls-2" x="230.84" y="83.73" width="3.02" height="3.01"/><rect class="cls-2" x="234.61" y="83.73" width="3.02" height="3.01"/><rect class="cls-2" x="238.38" y="83.73" width="3.02" height="3.01"/><rect class="cls-2" x="242.15" y="83.73" width="3.02" height="3.01"/><rect class="cls-2" x="245.91" y="83.73" width="3.02" height="3.01"/><rect class="cls-2" x="249.68" y="83.73" width="3.02" height="3.01"/><rect class="cls-2" x="253.45" y="83.73" width="3.01" height="3.01"/><rect class="cls-2" x="257.22" y="83.73" width="3.02" height="3.01"/><rect class="cls-2" x="260.99" y="83.73" width="3.01" height="3.01"/><rect class="cls-2" x="264.76" y="83.73" width="3.01" height="3.01"/><rect class="cls-2" x="276.07" y="83.73" width="3.02" height="3.01"/></g><path class="cls-13" d="M157.22,219.33v.56h0v.68h0V205.21c-.07,0-12,.1-12,.1a15.89,15.89,0,0,1-14.14,8.54h-.45v5.56Z" transform="translate(-12.74 -12.33)"/><path class="cls-5" d="M122.22,219.41v0l8.41,0v-5.56h0C128.5,213.72,123.29,215.11,122.22,219.41Z" transform="translate(-12.74 -12.33)"/><path class="cls-19" d="M157.22,219.33l-26.6.08-8.41,0v0c0,.15-.08.3-.11.44h35.12Z" transform="translate(-12.74 -12.33)"/><path class="cls-10" d="M157.22,220.57H122v0a9.67,9.67,0,0,0-.1,1.82c0,.38,0,.6,0,.6h0l8.69,0,26.61-.06v-2.37Z" transform="translate(-12.74 -12.33)"/><path class="cls-2" d="M157.22,219.89H122.1v0c0,.22-.09.44-.12.65h35.25Z" transform="translate(-12.74 -12.33)"/><rect class="cls-2" x="144.48" y="207.56" height="0.68"/><path class="cls-10" d="M146.83,211.66a3.57,3.57,0,1,0,3.56-3.57A3.56,3.56,0,0,0,146.83,211.66Z" transform="translate(-12.74 -12.33)"/><path class="cls-13" d="M98.86,203.46l-.33.45h0l-.41.54h0l-.26.35,9.48-12.64c0-.06-9.68-7.13-9.68-7.13a15.9,15.9,0,0,1-16.43-1.65l-.1-.08,0,0-.2-.15,0,0-3.34,4.45Z" transform="translate(-12.74 -12.33)"/><path class="cls-5" d="M70.81,182.53h0l6.74,5,3.34-4.45h0C79.25,181.74,74.25,179.73,70.81,182.53Z" transform="translate(-12.74 -12.33)"/><path class="cls-19" d="M98.86,203.46,77.53,187.57l-6.74-5v0c-.12.09-.24.18-.35.28L77.24,188l21.29,16Z" transform="translate(-12.74 -12.33)"/><path class="cls-10" d="M98.12,204.46l-21.28-16-6.92-5.18h0a10.74,10.74,0,0,0-1.19,1.4c-.21.31-.32.5-.32.5l0,0,7,5.2L96.7,206.35l1.16-1.54Z" transform="translate(-12.74 -12.33)"/><path class="cls-2" d="M98.53,203.91,77.24,188l-6.81-5.11,0,0c-.18.15-.34.3-.49.45l6.92,5.18,21.28,16Z" transform="translate(-12.74 -12.33)"/><rect class="cls-2" x="97.98" y="204.19" width="0.68" transform="matrix(0.6, -0.8, 0.8, 0.6, -136.76, 148)"/><path class="cls-10" d="M95.15,191.09a3.57,3.57,0,1,0,5-.71A3.57,3.57,0,0,0,95.15,191.09Z" transform="translate(-12.74 -12.33)"/><path class="cls-20" d="M142.89,154.62l2.44,48.49h11.61s3.68-37.71,4.18-48.49Z" transform="translate(-12.74 -12.33)"/><path class="cls-20" d="M155,121.37s-8.77-3.29-16.44,7.67c-1.37,2-3,4.34-4.81,6.93l-32.18,44.8,9.38,6.78s15.32-14.42,26.93-30l8.85-10.43s3.87-5.48,7.54-5.78c4.52-.37,10.55-3.32,10.55-16.38Z" transform="translate(-12.74 -12.33)"/><path class="cls-9" d="M116,88.2v27.06a2.61,2.61,0,0,0,2.61,2.62H137a2.61,2.61,0,0,0,2.61-2.62V88.2Z" transform="translate(-12.74 -12.33)"/><path class="cls-9" d="M144.89,102.4a9.64,9.64,0,0,0-5.31-8.73v3.15a7.06,7.06,0,0,1,0,11.18v3.16A9.66,9.66,0,0,0,144.89,102.4Z" transform="translate(-12.74 -12.33)"/><g class="cls-21"><path class="cls-22" d="M141.5,99V94.89a8.24,8.24,0,0,0-1.87-1.22v3.15A6.59,6.59,0,0,1,141.5,99Z" transform="translate(-12.74 -12.33)"/><path class="cls-22" d="M141.5,105.86a6.55,6.55,0,0,1-1.84,2.14v3.16A8.36,8.36,0,0,0,141.5,110Z" transform="translate(-12.74 -12.33)"/></g><circle class="cls-2" cx="114.95" cy="90.33" r="5.7"/><path id="_Görbe_" data-name="&lt;Görbe&gt;" class="cls-23" d="M210.79,117.56v-.08c0-4.68-4.6-8.47-10.26-8.47s-10.26,3.79-10.26,8.47v.08Z" transform="translate(-12.74 -12.33)"/><path class="cls-5" d="M190.27,117.48v0h20.52v0a7.23,7.23,0,0,0-.22-1.75H190.5A6.77,6.77,0,0,0,190.27,117.48Z" transform="translate(-12.74 -12.33)"/><path class="cls-24" d="M200.48,111.23a.5.5,0,0,0,.5-.5V109l-.45,0c-.19,0-.37,0-.56,0v1.69A.5.5,0,0,0,200.48,111.23Z" transform="translate(-12.74 -12.33)"/><path class="cls-25" d="M172.81,126.3l-10.38-2.72-22,31h48.31s14.61.36,14.61-11.33V126.45Z" transform="translate(-12.74 -12.33)"/><polygon class="cls-26" points="137.02 129.17 172.83 142.29 127.59 142.29 137.02 129.17"/><rect class="cls-2" x="137.92" y="91.54" width="8.64" height="0.91"/><rect class="cls-2" x="137.92" y="96.2" width="8.64" height="0.91"/><rect class="cls-5" x="27.42" y="66.21" width="73.11" height="38.97" rx="3.64" ry="3.64"/><rect class="cls-27" x="27.42" y="80.67" width="73.11" height="24.51" rx="3.64" ry="3.64"/><path class="cls-10" d="M102.45,115.7c0,1-1.12,1.83-2.51,1.83H53.5c-1.39,0-2.51-.82-2.51-1.83v-8.62c0-1,1.12-1.82,2.51-1.82H99.94c1.39,0,2.51.82,2.51,1.82Z" transform="translate(-12.74 -12.33)"/><rect class="cls-10" x="38.71" y="61.43" width="49.93" height="11.21"/><rect class="cls-2" x="43.08" y="54.09" width="41.2" height="18.56"/><rect class="cls-2" x="43.08" y="98.03" width="41.2" height="1.78"/><circle class="cls-17" cx="91.77" cy="76.73" r="1.49"/><circle class="cls-9" cx="86.82" cy="76.73" r="1.49"/><rect class="cls-5" x="46.6" y="59" width="34.2" height="0.71"/><rect class="cls-5" x="46.6" y="61.08" width="34.2" height="0.71"/><rect class="cls-5" x="46.6" y="63.15" width="34.2" height="0.71"/><rect class="cls-5" x="46.6" y="65.23" width="34.2" height="0.71"/><rect class="cls-5" x="46.6" y="67.3" width="34.2" height="0.71"/><rect class="cls-5" x="46.6" y="69.38" width="34.2" height="0.71"/><polygon class="cls-28" points="213.15 157.54 217.12 142.12 244.04 142.37 241.42 157.54 213.15 157.54"/><polygon class="cls-2" points="202.73 157.54 200.48 146.84 222.95 146.84 225.86 157.54 202.73 157.54"/><g class="cls-29"><ellipse class="cls-30" cx="83.29" cy="88.48" rx="0.56" ry="0.54"/><ellipse class="cls-30" cx="86.21" cy="88.48" rx="0.56" ry="0.54"/><path class="cls-30" d="M119,93.63h-28c-.37,0-.68.46-.68,1V107c0,.56.31,1,.68,1H119c.37,0,.67-.45.67-1V94.65C119.66,94.09,119.36,93.63,119,93.63Zm-21.41,11a3.83,3.83,0,1,1,3.94-3.82A3.89,3.89,0,0,1,97.58,104.63Zm14.77,0a3.83,3.83,0,1,1,3.94-3.82A3.89,3.89,0,0,1,112.35,104.63Z" transform="translate(-12.74 -12.33)"/><ellipse class="cls-30" cx="98.05" cy="88.48" rx="0.56" ry="0.54"/><ellipse class="cls-30" cx="100.98" cy="88.48" rx="0.56" ry="0.54"/></g><path class="cls-2" d="M145.17,209.89h.5a2.33,2.33,0,0,0-1.94-2.29c-.11.15-.24.3-.37.46A1.83,1.83,0,0,1,145.17,209.89Z" transform="translate(-12.74 -12.33)"/><path class="cls-2" d="M143.09,212.07h.5a2.32,2.32,0,0,0-1.86-2.28l-.47.4v.05A1.83,1.83,0,0,1,143.09,212.07Z" transform="translate(-12.74 -12.33)"/><path class="cls-2" d="M140.73,213.68h.5a2.33,2.33,0,0,0-1.69-2.23c-.21.14-.42.27-.64.39h0A1.84,1.84,0,0,1,140.73,213.68Z" transform="translate(-12.74 -12.33)"/><path class="cls-2" d="M94.6,188.73l.39.3a2.32,2.32,0,0,0-.13-3l-.58.14A1.82,1.82,0,0,1,94.6,188.73Z" transform="translate(-12.74 -12.33)"/><path class="cls-2" d="M91.62,189.18l.4.31a2.36,2.36,0,0,0-.08-3c-.2,0-.41,0-.62,0l0,0A1.83,1.83,0,0,1,91.62,189.18Z" transform="translate(-12.74 -12.33)"/><path class="cls-2" d="M88.76,189l.4.31a2.33,2.33,0,0,0,0-2.79l-.75-.09h0A1.83,1.83,0,0,1,88.76,189Z" transform="translate(-12.74 -12.33)"/><path class="cls-13" d="M321.4,223.65H14.83a.51.51,0,0,1-.5-.5.5.5,0,0,1,.5-.5H321.4a.5.5,0,0,1,.5.5A.5.5,0,0,1,321.4,223.65Z" transform="translate(-12.74 -12.33)"/></svg>